<?xml version="1.0" encoding="UTF-8"?>
<svg version="1.1" xmlns="http://www.w3.org/2000/svg" width="256" height="256">
<path d="M0 0 C1.7634375 -0.04060547 1.7634375 -0.04060547 3.5625 -0.08203125 C7.6687496 0.98652688 9.32417043 2.2854995 11.87011719 5.6081543 C14.00197057 9.76729522 13.72492593 14.04402081 13.625 18.625 C13.50428913 27.37050237 14.14716503 35.53157226 20.25 42.3125 C20.8275 42.8075 21.405 43.3025 22 43.8125 C22 44.4725 22 45.1325 22 45.8125 C23.11375 46.245625 23.11375 46.245625 24.25 46.6875 C27 47.8125 27 47.8125 28.9375 48.875 C31.57505571 50.07388896 34.14204094 50.42277831 37 50.8125 C37.01417969 50.25304688 37.02835938 49.69359375 37.04296875 49.1171875 C37.84603293 35.61702748 43.26263651 23.45414353 52.89453125 13.94140625 C54.55436534 12.49131155 56.24342394 11.14276097 58 9.8125 C58.73259033 9.18121185 59.46518066 8.54992371 60.2199707 7.89950562 C70.40590486 0.252787 82.35747611 0.05932304 94.5 0.1484375 C96.15039424 0.14505694 97.80078602 0.1401941 99.45117188 0.13394165 C102.88696315 0.12662846 106.32209837 0.13709361 109.7578125 0.16064453 C114.12174734 0.18912975 118.4841438 0.17269546 122.84802246 0.14278221 C126.24913748 0.12455701 129.64989864 0.13053607 133.05102539 0.14342117 C134.65828645 0.14671339 136.26558159 0.14281887 137.87280273 0.13102341 C152.39332477 0.04779539 164.32045235 2.42120627 175.59375 12.41796875 C186.40616547 23.17772635 192.08028974 35.6214236 193 50.8125 C197.98590216 49.71391139 201.67834658 48.60886398 206 45.8125 C206.66 45.8125 207.32 45.8125 208 45.8125 C208.37125 45.008125 208.37125 45.008125 208.75 44.1875 C210 41.8125 210 41.8125 212 38.9375 C216.70331023 31.58857777 216.31653284 24.40092224 216.21484375 15.95507812 C216.3191565 10.08547994 216.99229356 6.27146258 221.25292969 2.03930664 C224.14679728 0.00720985 226.52140564 -0.08009921 230 0 C231.175625 -0.00644531 232.35125 -0.01289063 233.5625 -0.01953125 C237.07146092 0.82979679 239.4214136 1.77582218 241.85742188 4.5090332 C244.31516665 9.46390969 243.87568758 15.17567403 243.78222656 20.59521484 C243.75045869 22.78094097 243.78173651 24.95905295 243.8203125 27.14453125 C243.85155852 38.38927239 241.3155914 47.3391129 235 56.8125 C234.34 56.8125 233.68 56.8125 233 56.8125 C232.938125 57.369375 232.87625 57.92625 232.8125 58.5 C230.50540637 65.06634342 222.19647882 70.11891108 216.25 73.26953125 C208.22582527 77.05266798 201.78941754 77.94567299 193 77.8125 C193 81.7725 193 85.7325 193 89.8125 C194.18029785 89.80202637 195.3605957 89.79155273 196.57666016 89.78076172 C200.97116035 89.74446038 205.36564737 89.72156267 209.76025391 89.70263672 C211.65936515 89.69260221 213.55846104 89.67897157 215.45751953 89.66162109 C218.19307251 89.63726049 220.92842053 89.62599123 223.6640625 89.6171875 C224.50804596 89.60686493 225.35202942 89.59654236 226.22158813 89.58590698 C230.85521576 89.58503244 234.69067828 89.88276471 239 91.8125 C240.375 93.9375 240.375 93.9375 241 95.8125 C241.66 95.8125 242.32 95.8125 243 95.8125 C243.86083139 109.77709816 243.86083139 109.77709816 240.6875 113.625 C237.32247176 116.36397648 235.00981901 116.93865561 230.80395508 116.92602539 C229.96331009 116.92594986 229.1226651 116.92587433 228.25654602 116.92579651 C227.35333115 116.92063522 226.45011627 116.91547394 225.51953125 116.91015625 C224.12754768 116.90803383 224.12754768 116.90803383 222.70744324 116.90586853 C219.74242942 116.90026937 216.77749101 116.88771704 213.8125 116.875 C211.80273547 116.86998489 209.79296975 116.865422 207.78320312 116.86132812 C202.8554163 116.85115095 197.9277926 116.83157533 193 116.8125 C193 124.7325 193 132.6525 193 140.8125 C195.99707031 140.80089844 198.99414062 140.78929687 202.08203125 140.77734375 C204.98120009 140.76954747 207.88036778 140.76347395 210.77954102 140.75756836 C212.79614789 140.75253618 214.8127511 140.74570986 216.8293457 140.73706055 C219.72608339 140.72494627 222.62277288 140.71926057 225.51953125 140.71484375 C226.42274612 140.70968246 227.325961 140.70452118 228.25654602 140.69920349 C229.5175135 140.69909019 229.5175135 140.69909019 230.80395508 140.69897461 C231.54341873 140.696754 232.28288239 140.69453339 233.04475403 140.69224548 C236.42197236 140.89995631 238.06690246 141.86695549 240.6875 144 C244.72761834 148.89894589 243.36679362 155.8622924 243 161.8125 C242.34 161.8125 241.68 161.8125 241 161.8125 C240.79375 162.43125 240.5875 163.05 240.375 163.6875 C238.37531494 166.77792236 236.5532714 166.91909754 233 167.8125 C229.88401048 168.06742717 226.78869902 168.04602922 223.6640625 168.0078125 C222.34503433 168.00356766 222.34503433 168.00356766 220.99935913 167.99923706 C218.20776406 167.98809712 215.4164971 167.96300411 212.625 167.9375 C210.72526507 167.9274622 208.82552508 167.91833775 206.92578125 167.91015625 C202.28372893 167.88817806 197.64191998 167.8536911 193 167.8125 C193 171.7725 193 175.7325 193 179.8125 C194.299375 179.77125 195.59875 179.73 196.9375 179.6875 C209.02872302 179.76295225 219.17185329 184.6149352 228 192.8125 C228.94875 193.67875 229.8975 194.545 230.875 195.4375 C233 197.8125 233 197.8125 233 200.8125 C233.66 200.8125 234.32 200.8125 235 200.8125 C236.14829977 203.082116 237.29371978 205.35310778 238.4375 207.625 C238.76298828 208.26759766 239.08847656 208.91019531 239.42382812 209.57226562 C243.22367798 217.13279163 243.31807037 223.55252166 243.4050293 231.80834961 C243.42660435 233.3476404 243.4607027 234.88680866 243.50756836 236.42553711 C243.94274228 250.86061214 243.94274228 250.86061214 240.41015625 254.8046875 C236.60497995 257.04507767 234.39696237 257.64910615 230 257.625 C228.824375 257.65207031 227.64875 257.67914063 226.4375 257.70703125 C222.3312504 256.63847312 220.67582957 255.3395005 218.12988281 252.0168457 C215.99802943 247.85770478 216.27507407 243.58097919 216.375 239 C216.49571087 230.25449763 215.85283497 222.09342774 209.75 215.3125 C209.1725 214.8175 208.595 214.3225 208 213.8125 C208 213.1525 208 212.4925 208 211.8125 C207.2575 211.52375 206.515 211.235 205.75 210.9375 C203 209.8125 203 209.8125 201.0625 208.75 C198.42494429 207.55111104 195.85795906 207.20222169 193 206.8125 C192.98582031 207.37195313 192.97164062 207.93140625 192.95703125 208.5078125 C192.00833716 224.45612941 184.58973836 237.23894485 172.8125 247.75 C161.20117501 256.45651057 149.43546311 257.57883541 135.5 257.4765625 C133.84960576 257.47994306 132.19921398 257.4848059 130.54882812 257.49105835 C127.11303685 257.49837154 123.67790163 257.48790639 120.2421875 257.46435547 C115.87825266 257.43587025 111.5158562 257.45230454 107.15197754 257.48221779 C103.75086252 257.50044299 100.35010136 257.49446393 96.94897461 257.48157883 C95.34171355 257.47828661 93.73441841 257.48218113 92.12719727 257.49397659 C77.60667523 257.57720461 65.67954765 255.20379373 54.40625 245.20703125 C43.59383453 234.44727365 37.91971026 222.0035764 37 206.8125 C32.01409784 207.91108861 28.32165342 209.01613602 24 211.8125 C23.34 211.8125 22.68 211.8125 22 211.8125 C21.72285156 212.39 21.44570313 212.9675 21.16015625 213.5625 C19.67269523 216.44727289 17.90406655 219.10365112 16.12109375 221.8125 C14.10875293 225.40245992 13.88726067 228.70298296 13.89453125 232.76953125 C13.87229492 234.19168945 13.87229492 234.19168945 13.84960938 235.64257812 C13.82501742 237.6189945 13.81957637 239.59574878 13.83398438 241.57226562 C13.70235222 247.46380191 13.02414026 251.34390943 8.74487305 255.59008789 C5.85113251 257.61736631 3.47581524 257.70503522 0 257.625 C-1.175625 257.63144531 -2.35125 257.63789063 -3.5625 257.64453125 C-7.07146092 256.79520321 -9.4214136 255.84917782 -11.85742188 253.1159668 C-14.31516665 248.16109031 -13.87568758 242.44932597 -13.78222656 237.02978516 C-13.75045869 234.84405903 -13.78173651 232.66594705 -13.8203125 230.48046875 C-13.85155852 219.23572761 -11.3155914 210.2858871 -5 200.8125 C-4.34 200.8125 -3.68 200.8125 -3 200.8125 C-2.938125 200.255625 -2.87625 199.69875 -2.8125 199.125 C-0.50540637 192.55865658 7.80352118 187.50608892 13.75 184.35546875 C21.77417473 180.57233202 28.21058246 179.67932701 37 179.8125 C37 175.8525 37 171.8925 37 167.8125 C35.22955322 167.82821045 35.22955322 167.82821045 33.42333984 167.84423828 C29.02883965 167.88053962 24.63435263 167.90343733 20.23974609 167.92236328 C18.34063485 167.93239779 16.44153896 167.94602843 14.54248047 167.96337891 C11.80692749 167.98773951 9.07157947 167.99900877 6.3359375 168.0078125 C5.06996231 168.02329636 5.06996231 168.02329636 3.77841187 168.03909302 C-0.85521576 168.03996756 -4.69067828 167.74223529 -9 165.8125 C-10.375 163.6875 -10.375 163.6875 -11 161.8125 C-11.66 161.8125 -12.32 161.8125 -13 161.8125 C-13.86083139 147.84790184 -13.86083139 147.84790184 -10.6875 144 C-7.32247176 141.26102352 -5.00981901 140.68634439 -0.80395508 140.69897461 C0.03668991 140.69905014 0.8773349 140.69912567 1.74345398 140.69920349 C2.64666885 140.70436478 3.54988373 140.70952606 4.48046875 140.71484375 C5.40845779 140.7162587 6.33644684 140.71767365 7.29255676 140.71913147 C10.25757058 140.72473063 13.22250899 140.73728296 16.1875 140.75 C18.19726453 140.75501511 20.20703025 140.759578 22.21679688 140.76367188 C27.1445837 140.77384905 32.0722074 140.79342467 37 140.8125 C37 132.8925 37 124.9725 37 116.8125 C34.00292969 116.82410156 31.00585938 116.83570312 27.91796875 116.84765625 C25.01879991 116.85545253 22.11963222 116.86152605 19.22045898 116.86743164 C17.20385211 116.87246382 15.1872489 116.87929014 13.1706543 116.88793945 C10.27391661 116.90005373 7.37722712 116.90573943 4.48046875 116.91015625 C3.57725388 116.91531754 2.674039 116.92047882 1.74345398 116.92579651 C0.4824865 116.92590981 0.4824865 116.92590981 -0.80395508 116.92602539 C-1.54341873 116.928246 -2.28288239 116.93046661 -3.04475403 116.93275452 C-6.42197236 116.72504369 -8.06690246 115.75804451 -10.6875 113.625 C-14.72761834 108.72605411 -13.36679362 101.7627076 -13 95.8125 C-12.34 95.8125 -11.68 95.8125 -11 95.8125 C-10.79375 95.19375 -10.5875 94.575 -10.375 93.9375 C-8.37531494 90.84707764 -6.5532714 90.70590246 -3 89.8125 C0.11598952 89.55757283 3.21130098 89.57897078 6.3359375 89.6171875 C7.65496567 89.62143234 7.65496567 89.62143234 9.00064087 89.62576294 C11.79223594 89.63690288 14.5835029 89.66199589 17.375 89.6875 C19.27473493 89.6975378 21.17447492 89.70666225 23.07421875 89.71484375 C27.71627107 89.73682194 32.35808002 89.7713089 37 89.8125 C37 85.8525 37 81.8925 37 77.8125 C35.700625 77.85375 34.40125 77.895 33.0625 77.9375 C20.97127698 77.86204775 10.82814671 73.0100648 2 64.8125 C1.05125 63.94625 0.1025 63.08 -0.875 62.1875 C-3 59.8125 -3 59.8125 -3 56.8125 C-3.66 56.8125 -4.32 56.8125 -5 56.8125 C-6.14829977 54.542884 -7.29371978 52.27189222 -8.4375 50 C-8.76298828 49.35740234 -9.08847656 48.71480469 -9.42382812 48.05273438 C-13.22367798 40.49220837 -13.31807037 34.07247834 -13.4050293 25.81665039 C-13.42660435 24.2773596 -13.4607027 22.73819134 -13.50756836 21.19946289 C-13.94274228 6.76438786 -13.94274228 6.76438786 -10.41015625 2.8203125 C-6.60497995 0.57992233 -4.39696237 -0.02410615 0 0 Z M70.5 34.8125 C63.77869736 44.42302697 63.41911136 55.99871431 63.51416016 67.2980957 C63.51200843 68.80425851 63.50812207 70.31041967 63.50265503 71.8165741 C63.49305292 75.86596658 63.50814636 79.91491061 63.52856112 83.9642489 C63.54626975 88.22055984 63.54260446 92.47685979 63.5418396 96.73320007 C63.54370564 103.87209477 63.56097974 111.0108182 63.58837891 118.1496582 C63.61988253 126.38805791 63.63037259 134.62627077 63.6289078 142.86472636 C63.62755461 151.66621777 63.64144195 160.46763779 63.65980101 169.26910758 C63.66405112 171.79401979 63.66548161 174.31892038 63.66627884 176.84383583 C63.66829546 180.81583617 63.68056778 184.78768122 63.70061111 188.7596302 C63.70642522 190.21241046 63.70891917 191.6652086 63.70775604 193.11800003 C63.70204771 204.59324097 64.25429317 215.29340451 72.25537109 224.37002563 C80.03533597 230.80256831 89.78091881 231.5601617 99.4375 231.4765625 C100.67943115 231.48134613 101.9213623 231.48612976 103.20092773 231.49105835 C105.80942055 231.49443924 108.41795679 231.48536497 111.02636719 231.46435547 C114.98990515 231.43756823 118.95061128 231.46417004 122.9140625 231.49609375 C125.46354784 231.49278934 128.01303143 231.48638246 130.5625 231.4765625 C131.73159912 231.48668365 132.90069824 231.49680481 134.10522461 231.50723267 C142.8758423 231.38398347 151.83491461 229.94066126 158.30297852 223.52993774 C164.40724459 216.10091997 166.11063559 208.84942502 166.14717102 199.33201599 C166.15432632 198.04677536 166.16148163 196.76153473 166.16885376 195.43734741 C166.17169355 194.02520776 166.17440533 192.61306785 166.17700195 191.20092773 C166.18327314 189.70391179 166.18992051 188.20689738 166.19691467 186.70988464 C166.2178835 181.80529855 166.22831188 176.90071241 166.23828125 171.99609375 C166.2423318 170.3018651 166.24644881 168.60763661 166.25063133 166.91340828 C166.26966901 158.94974997 166.28390176 150.98610083 166.2922433 143.02242416 C166.3020039 133.85749303 166.32829854 124.69280417 166.36874419 115.52795833 C166.39899967 108.42620475 166.41372117 101.32452025 166.41702431 94.22270352 C166.41936445 89.98961648 166.42818851 85.75678866 166.45348549 81.52377129 C166.4769365 77.53537633 166.48093195 73.54740816 166.47072411 69.55896187 C166.47023271 68.10503842 166.47643458 66.65109271 166.49028015 65.19723511 C166.58545869 54.59953976 165.76376398 43.76990631 159.5 34.8125 C152.82854903 28.07919469 143.21165685 26.24573557 134.10522461 26.11776733 C132.93612549 26.12788849 131.76702637 26.13800964 130.5625 26.1484375 C129.32056885 26.14365387 128.0786377 26.13887024 126.79907227 26.13394165 C124.19057945 26.13056076 121.58204321 26.13963503 118.97363281 26.16064453 C115.01009485 26.18743177 111.04938872 26.16082996 107.0859375 26.12890625 C104.53645216 26.13221066 101.98696857 26.13861754 99.4375 26.1484375 C97.68385132 26.13325577 97.68385132 26.13325577 95.89477539 26.11776733 C86.78834315 26.24573557 77.17145097 28.07919469 70.5 34.8125 Z " fill="#FFFFFF" transform="translate(13,-0.8125)"/>
<path d="M0 0 C1.44435016 -0.00524548 2.88869689 -0.01152531 4.33303833 -0.01878357 C7.35060824 -0.0291511 10.36770554 -0.0246809 13.38525391 -0.01000977 C17.22739195 0.00715352 21.06803089 -0.0163036 24.91000175 -0.05149937 C27.8906114 -0.07360232 30.87086961 -0.07200081 33.8515358 -0.06373405 C35.26674161 -0.06292118 36.68197498 -0.06965602 38.09710312 -0.08450508 C48.54883046 -0.17736717 55.66354055 1.40500368 64.0078125 7.75390625 C70.69800306 16.60857023 70.71067006 26.1188757 70.65039062 36.78125 C70.6558198 38.40195339 70.6629469 40.02265184 70.67163086 41.64334106 C70.68977276 46.01943836 70.68283473 50.39515589 70.67011452 54.77125931 C70.65993925 59.36566388 70.66939271 63.96003742 70.67565918 68.55444336 C70.68292246 76.26779985 70.67338262 83.9810028 70.65429688 91.69433594 C70.63253066 100.59334208 70.63958297 109.49198155 70.6616025 118.39097881 C70.6797942 126.05160234 70.68229643 133.71211593 70.67184782 141.3727541 C70.66563357 145.93930884 70.66472 150.50569163 70.67799377 155.07223511 C70.68960673 159.36687127 70.68142795 163.66103783 70.65841675 167.95562363 C70.65315858 169.52527972 70.65459349 171.09497581 70.66346741 172.66461563 C70.75936297 191.36026006 70.75936297 191.36026006 64.47077179 198.43666077 C62.75039608 200.06688366 61.15063616 201.31071023 59.1328125 202.56640625 C58.07465332 203.2426001 57.01649414 203.91879395 55.92626953 204.61547852 C49.72169547 207.6731233 43.03125135 207.16284616 36.265625 207.1328125 C34.82127484 207.13805798 33.37692811 207.14433781 31.93258667 207.15159607 C28.91501676 207.1619636 25.89791946 207.1574934 22.88037109 207.14282227 C19.03823305 207.12565898 15.19759411 207.1491161 11.35562325 207.18431187 C8.3750136 207.20641482 5.39475539 207.20481331 2.4140892 207.19654655 C0.99888339 207.19573368 -0.41634998 207.20246852 -1.83147812 207.21731758 C-12.28320546 207.31017967 -19.39791555 205.72780882 -27.7421875 199.37890625 C-34.43237806 190.52424227 -34.44504506 181.0139368 -34.38476562 170.3515625 C-34.3901948 168.73085911 -34.3973219 167.11016066 -34.40600586 165.48947144 C-34.42414776 161.11337414 -34.41720973 156.73765661 -34.40448952 152.36155319 C-34.39431425 147.76714862 -34.40376771 143.17277508 -34.41003418 138.57836914 C-34.41729746 130.86501265 -34.40775762 123.1518097 -34.38867188 115.43847656 C-34.36690566 106.53947042 -34.37395797 97.64083095 -34.3959775 88.74183369 C-34.4141692 81.08121016 -34.41667143 73.42069657 -34.40622282 65.7600584 C-34.40000857 61.19350366 -34.399095 56.62712087 -34.41236877 52.06057739 C-34.42398173 47.76594123 -34.41580295 43.47177467 -34.39279175 39.17718887 C-34.38753358 37.60753278 -34.38896849 36.03783669 -34.39784241 34.46819687 C-34.49373797 15.77255244 -34.49373797 15.77255244 -28.20514679 8.69615173 C-26.48477108 7.06592884 -24.88501116 5.82210227 -22.8671875 4.56640625 C-21.80902832 3.8902124 -20.75086914 3.21401855 -19.66064453 2.51733398 C-13.45607047 -0.5403108 -6.76562635 -0.03003366 0 0 Z M-26.3671875 9.56640625 C-33.08849014 19.17693322 -33.44807614 30.75262056 -33.35302734 42.05200195 C-33.35517907 43.55816476 -33.35906543 45.06432592 -33.36453247 46.57048035 C-33.37413458 50.61987283 -33.35904114 54.66881686 -33.33862638 58.71815515 C-33.32091775 62.97446609 -33.32458304 67.23076604 -33.3253479 71.48710632 C-33.32348186 78.62600102 -33.30620776 85.76472445 -33.27880859 92.90356445 C-33.24730497 101.14196416 -33.23681491 109.38017702 -33.2382797 117.61863261 C-33.23963289 126.42012402 -33.22574555 135.22154404 -33.20738649 144.02301383 C-33.20313638 146.54792604 -33.20170589 149.07282663 -33.20090866 151.59774208 C-33.19889204 155.56974242 -33.18661972 159.54158747 -33.16657639 163.51353645 C-33.16076228 164.96631671 -33.15826833 166.41911485 -33.15943146 167.87190628 C-33.16513979 179.34714722 -32.61289433 190.04731076 -24.61181641 199.12393188 C-16.83185153 205.55647456 -7.08626869 206.31406795 2.5703125 206.23046875 C3.81224365 206.23525238 5.0541748 206.24003601 6.33374023 206.2449646 C8.94223305 206.24834549 11.55076929 206.23927122 14.15917969 206.21826172 C18.12271765 206.19147448 22.08342378 206.21807629 26.046875 206.25 C28.59636034 206.24669559 31.14584393 206.24028871 33.6953125 206.23046875 C34.86441162 206.2405899 36.03351074 206.25071106 37.23803711 206.26113892 C46.0086548 206.13788972 54.96772711 204.69456751 61.43579102 198.28384399 C67.54005709 190.85482622 69.24344809 183.60333127 69.27998352 174.08592224 C69.28713882 172.80068161 69.29429413 171.51544098 69.30166626 170.19125366 C69.30450605 168.77911401 69.30721783 167.3669741 69.30981445 165.95483398 C69.31608564 164.45781804 69.32273301 162.96080363 69.32972717 161.46379089 C69.350696 156.5592048 69.36112438 151.65461866 69.37109375 146.75 C69.3751443 145.05577135 69.37926131 143.36154286 69.38344383 141.66731453 C69.40248151 133.70365622 69.41671426 125.74000708 69.4250558 117.77633041 C69.4348164 108.61139928 69.46111104 99.44671042 69.50155669 90.28186458 C69.53181217 83.180111 69.54653367 76.0784265 69.54983681 68.97660977 C69.55217695 64.74352273 69.56100101 60.51069491 69.58629799 56.27767754 C69.609749 52.28928258 69.61374445 48.30131441 69.60353661 44.31286812 C69.60304521 42.85894467 69.60924708 41.40499896 69.62309265 39.95114136 C69.71827119 29.35344601 68.89657648 18.52381256 62.6328125 9.56640625 C55.96136153 2.83310094 46.34446935 0.99964182 37.23803711 0.87167358 C36.06893799 0.88179474 34.89983887 0.89191589 33.6953125 0.90234375 C32.45338135 0.89756012 31.2114502 0.89277649 29.93188477 0.8878479 C27.32339195 0.88446701 24.71485571 0.89354128 22.10644531 0.91455078 C18.14290735 0.94133802 14.18220122 0.91473621 10.21875 0.8828125 C7.66926466 0.88611691 5.11978107 0.89252379 2.5703125 0.90234375 C0.81666382 0.88716202 0.81666382 0.88716202 -0.97241211 0.87167358 C-10.07884435 0.99964182 -19.69573653 2.83310094 -26.3671875 9.56640625 Z " fill="#000000" transform="translate(109.8671875,24.43359375)"/>
<path d="M0 0 C3.11404715 2.83095196 4.78162903 5.63680948 5.3125 9.8671875 C5.43581052 13.95184847 5.12723457 17.33545503 3.0625 20.875 C-0.6397011 24.2924164 -3.24171697 25.74938644 -8.3125 26.125 C-14.06249249 25.72844879 -17.1610948 23.05602005 -20.9375 18.875 C-22.81718188 15.11563624 -22.59565796 10.95801699 -21.9375 6.875 C-17.2318336 -1.43437295 -8.77159429 -3.35933399 0 0 Z " fill="#FFFFFF" transform="translate(161.9375,180.125)"/>
<path d="M0 0 C5.88977548 5.02363202 5.88977548 5.02363202 6.44140625 9.21875 C6.53871227 13.62995635 6.49055787 16.9817696 4.125 20.8125 C0.37265892 24.17998559 -2.16230217 25.68563349 -7.25 26.0625 C-11.15888317 25.79292185 -12.75726968 25.0876005 -15.875 22.8125 C-16.6175 22.338125 -17.36 21.86375 -18.125 21.375 C-21.23661077 18.5967761 -20.86176419 16.01765509 -21.125 11.9375 C-21.05753071 7.91183263 -20.15923508 5.19946926 -17.875 1.8125 C-13.03263666 -2.58964849 -5.81271896 -2.40090566 0 0 Z " fill="#FFFFFF" transform="translate(109.875,180.1875)"/>
<path d="M0 0 C0.33 0 0.66 0 1 0 C1.09796875 0.66644531 1.1959375 1.33289063 1.296875 2.01953125 C3.85904424 17.81221236 10.14655375 30.55456701 23.27734375 40.31640625 C32.2331109 45.854334 41.6718624 47.75154381 52 49 C52 53.95 52 58.9 52 64 C50.69329346 64.00410889 49.38658691 64.00821777 48.0402832 64.01245117 C43.18506605 64.03424804 38.33065866 64.08854402 33.47583008 64.15258789 C31.37597422 64.17576296 29.2760022 64.19016244 27.17602539 64.19555664 C24.15437475 64.20484963 21.13454983 64.24584846 18.11328125 64.29296875 C16.70832146 64.28706978 16.70832146 64.28706978 15.27497864 64.28105164 C10.71305786 64.38281955 8.64992169 64.49532615 4.94995117 67.3684082 C3.09038765 69.87801571 1.93349323 72.02979428 1 75 C0.67 75 0.34 75 0 75 C0 72.69 0 70.38 0 68 C0.66 68 1.32 68 2 68 C2.20625 67.38125 2.4125 66.7625 2.625 66.125 C4.62468506 63.03457764 6.4467286 62.89340246 10 62 C13.11598952 61.74507283 16.21130098 61.76647078 19.3359375 61.8046875 C20.65496567 61.80893234 20.65496567 61.80893234 22.00064087 61.81326294 C24.79223594 61.82440288 27.5835029 61.84949589 30.375 61.875 C32.27473493 61.8850378 34.17447492 61.89416225 36.07421875 61.90234375 C40.71627107 61.92432194 45.35808002 61.9588089 50 62 C50 58.04 50 54.08 50 50 C48.0509375 50.061875 48.0509375 50.061875 46.0625 50.125 C33.97127698 50.04954775 23.82814671 45.1975648 15 37 C14.05125 36.13375 13.1025 35.2675 12.125 34.375 C10 32 10 32 10 29 C9.34 29 8.68 29 8 29 C6.85170023 26.730384 5.70628022 24.45939222 4.5625 22.1875 C4.23701172 21.54490234 3.91152344 20.90230469 3.57617188 20.24023438 C0.99336178 15.1012411 -0.12424604 11.55488127 -0.0625 5.8125 C-0.05347656 4.72582031 -0.04445312 3.63914062 -0.03515625 2.51953125 C-0.02355469 1.68808594 -0.01195312 0.85664063 0 0 Z " fill="#000000" transform="translate(0,27)"/>
<path d="M0 0 C0.33 0 0.66 0 1 0 C2.09409354 11.06250133 -0.85907044 19.78860565 -7 29 C-7.66 29 -8.32 29 -9 29 C-9.0928125 29.8353125 -9.0928125 29.8353125 -9.1875 30.6875 C-11.49459363 37.25384342 -19.80352118 42.30641108 -25.75 45.45703125 C-33.77417473 49.24016798 -40.21058246 50.13317299 -49 50 C-49 53.96 -49 57.92 -49 62 C-47.81970215 61.98952637 -46.6394043 61.97905273 -45.42333984 61.96826172 C-41.02883965 61.93196038 -36.63435263 61.90906267 -32.23974609 61.89013672 C-30.34063485 61.88010221 -28.44153896 61.86647157 -26.54248047 61.84912109 C-23.80692749 61.82476049 -21.07157947 61.81349123 -18.3359375 61.8046875 C-17.49195404 61.79436493 -16.64797058 61.78404236 -15.77841187 61.77340698 C-11.14478424 61.77253244 -7.30932172 62.07026471 -3 64 C-1.625 66.125 -1.625 66.125 -1 68 C-0.34 68 0.32 68 1 68 C1 70.31 1 72.62 1 75 C0.7525 74.443125 0.505 73.88625 0.25 73.3125 C-1.56239774 69.95956419 -3.53114492 66.73442754 -7 65 C-8.41882881 64.88252522 -9.84271414 64.82314572 -11.26611328 64.79467773 C-12.14687531 64.77473251 -13.02763733 64.75478729 -13.93508911 64.73423767 C-14.88721283 64.71752518 -15.83933655 64.70081268 -16.8203125 64.68359375 C-17.79410858 64.66281265 -18.76790466 64.64203156 -19.77120972 64.62062073 C-22.88906647 64.55511402 -26.00700903 64.49623503 -29.125 64.4375 C-31.23568604 64.39431585 -33.34636333 64.3507016 -35.45703125 64.30664062 C-40.63793236 64.19943147 -45.81891999 64.09816717 -51 64 C-51 59.05 -51 54.1 -51 49 C-47.3803125 48.4121875 -47.3803125 48.4121875 -43.6875 47.8125 C-29.23822899 45.19894434 -17.76774725 38.90464683 -9.125 26.75 C-3.57565259 18.54531969 -0.7562598 9.83137737 0 0 Z " fill="#000000" transform="translate(255,27)"/>
<path d="M0 0 C0.2475 0.556875 0.495 1.11375 0.75 1.6875 C2.56239774 5.04043581 4.53114492 8.26557246 8 10 C9.41882881 10.11747478 10.84271414 10.17685428 12.26611328 10.20532227 C13.58725632 10.2352401 13.58725632 10.2352401 14.93508911 10.26576233 C16.36327469 10.29083107 16.36327469 10.29083107 17.8203125 10.31640625 C18.79410858 10.33718735 19.76790466 10.35796844 20.77120972 10.37937927 C23.88906647 10.44488598 27.00700903 10.50376497 30.125 10.5625 C32.23568604 10.60568415 34.34636333 10.6492984 36.45703125 10.69335938 C41.63793236 10.80056853 46.81891999 10.90183283 52 11 C52 15.95 52 20.9 52 26 C49.586875 26.391875 47.17375 26.78375 44.6875 27.1875 C31.98316232 29.47593103 20.6983016 34.56834991 12.6875 45.0625 C11.78375703 46.36956628 10.88712379 47.68159756 10 49 C8.948125 50.36125 8.948125 50.36125 7.875 51.75 C3.74628252 58.90644364 1.63095971 66.79752382 1 75 C0.67 75 0.34 75 0 75 C-1.09409354 63.93749867 1.85907044 55.21139435 8 46 C8.66 46 9.32 46 10 46 C10.061875 45.443125 10.12375 44.88625 10.1875 44.3125 C12.49459363 37.74615658 20.80352118 32.69358892 26.75 29.54296875 C34.77417473 25.75983202 41.21058246 24.86682701 50 25 C50 21.04 50 17.08 50 13 C48.22955322 13.01571045 48.22955322 13.01571045 46.42333984 13.03173828 C42.02883965 13.06803962 37.63435263 13.09093733 33.23974609 13.10986328 C31.34063485 13.11989779 29.44153896 13.13352843 27.54248047 13.15087891 C24.80692749 13.17523951 22.07157947 13.18650877 19.3359375 13.1953125 C18.06996231 13.21079636 18.06996231 13.21079636 16.77841187 13.22659302 C12.14478424 13.22746756 8.30932172 12.92973529 4 11 C2.625 8.875 2.625 8.875 2 7 C1.34 7 0.68 7 0 7 C0 4.69 0 2.38 0 0 Z " fill="#000000" transform="translate(0,154)"/>
<path d="M0 0 C11.58477628 -1.06390803 21.76699338 2.06706546 30.9375 9.25 C43.31611688 20.22692055 50.00225007 33.51992352 51 50 C55.98590216 48.90141139 59.67834658 47.79636398 64 45 C64.66 45 65.32 45 66 45 C66.37125 44.195625 66.37125 44.195625 66.75 43.375 C68 41 68 41 70 38.125 C74.70331023 30.77607777 74.31653284 23.58842224 74.21484375 15.14257812 C74.32232105 9.09491296 75.18406098 5.6622017 79.33544922 1.18505859 C82.13909781 -0.81096814 84.72318831 -0.45875364 88 0 C87.443125 0.2475 86.88625 0.495 86.3125 0.75 C82.03106226 3.06429067 78.81787366 5.41766759 77 10 C76.71635368 12.44538123 76.71635368 12.44538123 76.76171875 15.0703125 C76.74560547 16.05 76.72949219 17.0296875 76.71289062 18.0390625 C76.69615689 20.0728545 76.69067932 22.10677483 76.69726562 24.140625 C76.52723958 32.54320243 74.48928413 39.09099946 68.82421875 45.4375 C62.30920607 50.20167746 57.17560695 52.12686287 49 52 C48.84144531 51.05640625 48.68289062 50.1128125 48.51953125 49.140625 C46.19975967 36.37547308 42.86281228 22.48689082 31.78515625 14.37890625 C31.19605469 13.92386719 30.60695312 13.46882812 30 13 C30 12.34 30 11.68 30 11 C29.278125 10.731875 28.55625 10.46375 27.8125 10.1875 C25 9 25 9 22.72265625 7.55859375 C15.96546182 3.69041501 7.73134172 1.71919458 0 1 C0 0.67 0 0.34 0 0 Z " fill="#000000" transform="translate(155,0)"/>
<path d="M0 0 C0.33 0 0.66 0 1 0 C1 2.31 1 4.62 1 7 C0.34 7 -0.32 7 -1 7 C-1.20625 7.61875 -1.4125 8.2375 -1.625 8.875 C-3.62468506 11.96542236 -5.4467286 12.10659754 -9 13 C-12.11598952 13.25492717 -15.21130098 13.23352922 -18.3359375 13.1953125 C-19.65496567 13.19106766 -19.65496567 13.19106766 -21.00064087 13.18673706 C-23.79223594 13.17559712 -26.5835029 13.15050411 -29.375 13.125 C-31.27473493 13.1149622 -33.17447492 13.10583775 -35.07421875 13.09765625 C-39.71627107 13.07567806 -44.35808002 13.0411911 -49 13 C-49 16.96 -49 20.92 -49 25 C-47.700625 24.95875 -46.40125 24.9175 -45.0625 24.875 C-32.97127698 24.95045225 -22.82814671 29.8024352 -14 38 C-13.05125 38.86625 -12.1025 39.7325 -11.125 40.625 C-9 43 -9 43 -9 46 C-8.34 46 -7.68 46 -7 46 C-5.85170023 48.269616 -4.70628022 50.54060778 -3.5625 52.8125 C-3.23701172 53.45509766 -2.91152344 54.09769531 -2.57617188 54.75976562 C0.00663822 59.8987589 1.12424604 63.44511873 1.0625 69.1875 C1.05347656 70.27417969 1.04445313 71.36085938 1.03515625 72.48046875 C1.02355469 73.31191406 1.01195312 74.14335937 1 75 C0.67 75 0.34 75 0 75 C-0.14695312 74.00033203 -0.14695312 74.00033203 -0.296875 72.98046875 C-2.88923834 57.0016775 -9.24836487 44.54612519 -22.43359375 34.62109375 C-26.41148198 32.10842462 -30.56432308 30.50983618 -35 29 C-35.66 28.67 -36.32 28.34 -37 28 C-39.36950521 27.61076473 -41.7457572 27.2619422 -44.125 26.9375 C-46.39375 26.628125 -48.6625 26.31875 -51 26 C-51 21.05 -51 16.1 -51 11 C-49.03994019 10.99383667 -49.03994019 10.99383667 -47.0402832 10.98754883 C-42.18506605 10.96575196 -37.33065866 10.91145598 -32.47583008 10.84741211 C-30.37597422 10.82423704 -28.2760022 10.80983756 -26.17602539 10.80444336 C-23.15437475 10.79515037 -20.13454983 10.75415154 -17.11328125 10.70703125 C-16.17664139 10.7109639 -15.24000153 10.71489655 -14.27497864 10.71894836 C-9.71305786 10.61718045 -7.64992169 10.50467385 -3.94995117 7.6315918 C-2.09038765 5.12198429 -0.93349323 2.97020572 0 0 Z " fill="#000000" transform="translate(255,154)"/>
<path d="M0 0 C3.28275189 -0.45958526 5.86471904 -0.81210121 8.66894531 1.19384766 C13.54207391 6.45937012 13.77734166 10.82858722 13.625 17.8125 C13.50428913 26.55800237 14.14716503 34.71907226 20.25 41.5 C20.8275 41.995 21.405 42.49 22 43 C22 43.66 22 44.32 22 45 C23.11375 45.433125 23.11375 45.433125 24.25 45.875 C27 47 27 47 28.9375 48.0625 C31.57505571 49.26138896 34.14204094 49.61027831 37 50 C37.01417969 49.44054688 37.02835938 48.88109375 37.04296875 48.3046875 C37.84603293 34.80452748 43.26263651 22.64164353 52.89453125 13.12890625 C54.55436534 11.67881155 56.24342394 10.33026097 58 9 C58.75667969 8.34386719 59.51335937 7.68773437 60.29296875 7.01171875 C68.30638566 1.05658209 78.21166856 -0.8989284 88 0 C88 0.33 88 0.66 88 1 C87.09378906 1.17015625 86.18757813 1.3403125 85.25390625 1.515625 C75.78037243 3.40030686 68.22501603 6.0151418 60 11 C59.34 11 58.68 11 58 11 C57.773125 11.556875 57.54625 12.11375 57.3125 12.6875 C56 15 56 15 53.75 17.1875 C44.15582875 26.9997206 40.76805627 38.66978625 39 52 C30.85936316 51.96956771 25.04051686 50.66518378 19 45 C14.60766225 39.57199525 11.91124652 34.9560033 11.82421875 27.88671875 C11.80037109 26.88576172 11.77652344 25.88480469 11.75195312 24.85351562 C11.70922706 22.75475953 11.67784535 20.65573968 11.65820312 18.55664062 C11.48994612 12.45634607 11.20103652 8.57546045 7 4 C5.16775053 2.70754973 5.16775053 2.70754973 3.25 2.125 C1.64125 1.568125 1.64125 1.568125 0 1 C0 0.67 0 0.34 0 0 Z " fill="#000000" transform="translate(13,0)"/>
<path d="M0 0 C0.18175781 0.99 0.36351562 1.98 0.55078125 3 C3.13014048 16.71142209 6.77841754 27.06235038 17 37 C17.495 38.0828125 17.495 38.0828125 18 39.1875 C19.44372217 41.80424643 21.22883892 42.0333159 24 43 C24.76054688 43.47050781 25.52109375 43.94101563 26.3046875 44.42578125 C33.19136138 48.44799802 41.09877896 50.39221377 49 51 C49 51.33 49 51.66 49 52 C37.41522372 53.06390803 27.23300662 49.93293454 18.0625 42.75 C5.68388312 31.77307945 -1.00225007 18.48007648 -2 2 C-6.98590216 3.09858861 -10.67834658 4.20363602 -15 7 C-15.66 7 -16.32 7 -17 7 C-17.27714844 7.5775 -17.55429687 8.155 -17.83984375 8.75 C-19.32730477 11.63477289 -21.09593345 14.29115112 -22.87890625 17 C-24.89124707 20.58995992 -25.11273933 23.89048296 -25.10546875 27.95703125 C-25.12029297 28.90513672 -25.13511719 29.85324219 -25.15039062 30.83007812 C-25.17498258 32.8064945 -25.18042363 34.78324878 -25.16601562 36.75976562 C-25.30166464 42.83108661 -26.16754033 46.32630124 -30.33764648 50.81933594 C-33.1410161 52.81039122 -35.72614609 52.45833955 -39 52 C-38.443125 51.7525 -37.88625 51.505 -37.3125 51.25 C-33.03106226 48.93570933 -29.81787366 46.58233241 -28 42 C-27.71635368 39.55461877 -27.71635368 39.55461877 -27.76171875 36.9296875 C-27.74560547 35.95 -27.72949219 34.9703125 -27.71289062 33.9609375 C-27.69615689 31.9271455 -27.69067932 29.89322517 -27.69726562 27.859375 C-27.52723958 19.45679757 -25.48928413 12.90900054 -19.82421875 6.5625 C-13.30920607 1.79832254 -8.17560695 -0.12686287 0 0 Z " fill="#000000" transform="translate(52,204)"/>
<path d="M0 0 C8.14063684 0.03043229 13.95948314 1.33481622 20 7 C24.39233775 12.42800475 27.08875348 17.0439967 27.17578125 24.11328125 C27.21155273 25.6147168 27.21155273 25.6147168 27.24804688 27.14648438 C27.29077294 29.24524047 27.32215465 31.34426032 27.34179688 33.44335938 C27.51005388 39.54365393 27.79896348 43.42453955 32 48 C33.83224947 49.29245027 33.83224947 49.29245027 35.75 49.875 C36.8225 50.24625 37.895 50.6175 39 51 C39 51.33 39 51.66 39 52 C35.71724811 52.45958526 33.13528096 52.81210121 30.33105469 50.80615234 C25.45792609 45.54062988 25.22265834 41.17141278 25.375 34.1875 C25.49571087 25.44199763 24.85283497 17.28092774 18.75 10.5 C18.1725 10.005 17.595 9.51 17 9 C17 8.34 17 7.68 17 7 C16.2575 6.71125 15.515 6.4225 14.75 6.125 C12 5 12 5 10.0625 3.9375 C7.42494429 2.73861104 4.85795906 2.38972169 2 2 C1.98582031 2.55945313 1.97164062 3.11890625 1.95703125 3.6953125 C1.00833716 19.64362941 -6.41026164 32.42644485 -18.1875 42.9375 C-27.33719322 49.97572556 -37.52562689 53.05376896 -49 52 C-49 51.67 -49 51.34 -49 51 C-48.09378906 50.82984375 -47.18757812 50.6596875 -46.25390625 50.484375 C-36.78037243 48.59969314 -29.22501603 45.9848582 -21 41 C-20.34 41 -19.68 41 -19 41 C-18.773125 40.443125 -18.54625 39.88625 -18.3125 39.3125 C-17 37 -17 37 -14.8125 34.875 C-4.79628012 25.03658284 -1.77620732 13.56534803 0 0 Z " fill="#000000" transform="translate(204,204)"/>
<path d="M0 0 C0.33 0 0.66 0 1 0 C1.34559158 2.90296927 1.51874316 5.12537491 -0.0078125 7.69921875 C-2.19479231 10.40347821 -3.66669298 11.88889766 -7 13 C-8.39655459 13.08589303 -9.79685777 13.11772715 -11.19604492 13.11352539 C-12.03668991 13.11344986 -12.8773349 13.11337433 -13.74345398 13.11329651 C-14.64666885 13.10813522 -15.54988373 13.10297394 -16.48046875 13.09765625 C-17.40845779 13.0962413 -18.33644684 13.09482635 -19.29255676 13.09336853 C-22.25757058 13.08776937 -25.22250899 13.07521704 -28.1875 13.0625 C-30.19726453 13.05748489 -32.20703025 13.052922 -34.21679688 13.04882812 C-39.1445837 13.03865095 -44.0722074 13.01907533 -49 13 C-49 20.92 -49 28.84 -49 37 C-46.00292969 36.98839844 -43.00585938 36.97679687 -39.91796875 36.96484375 C-37.01879991 36.95704747 -34.11963222 36.95097395 -31.22045898 36.94506836 C-29.20385211 36.94003618 -27.1872489 36.93320986 -25.1706543 36.92456055 C-22.27391661 36.91244627 -19.37722712 36.90676057 -16.48046875 36.90234375 C-15.57725388 36.89718246 -14.674039 36.89202118 -13.74345398 36.88670349 C-12.4824865 36.88659019 -12.4824865 36.88659019 -11.19604492 36.88647461 C-10.08684944 36.88314369 -10.08684944 36.88314369 -8.95524597 36.87974548 C-5.25155005 37.10753583 -3.95527304 38.04472696 -1.3125 40.6875 C0.73086751 43.21417899 0.99605955 43.95744311 1.3125 47.375 C1.209375 48.24125 1.10625 49.1075 1 50 C-0.74627478 47.38058783 -1.38722388 45.96175123 -2 43 C-2.66 43 -3.32 43 -4 43 C-4 42.34 -4 41.68 -4 41 C-9.26169639 38.86687984 -13.96811258 38.66046675 -19.5546875 38.5859375 C-20.90700974 38.55688828 -20.90700974 38.55688828 -22.28665161 38.5272522 C-25.14933996 38.46775704 -28.01206918 38.42119183 -30.875 38.375 C-32.82293363 38.33679253 -34.77085086 38.2977392 -36.71875 38.2578125 C-41.47907848 38.16049744 -46.2392449 38.08069076 -51 38 C-51 29.42 -51 20.84 -51 12 C-46.66488281 11.92652344 -46.66488281 11.92652344 -42.2421875 11.8515625 C-39.4322406 11.79749817 -36.62237649 11.7402121 -33.8125 11.68261719 C-31.86497202 11.64441767 -29.91737565 11.60954925 -27.96972656 11.578125 C-25.16446554 11.53227804 -22.35967161 11.47431634 -19.5546875 11.4140625 C-18.68883026 11.40251129 -17.82297302 11.39096008 -16.93087769 11.37905884 C-12.24637958 11.26560224 -8.40637364 10.78636769 -4 9 C-4 8.34 -4 7.68 -4 7 C-3.34 7 -2.68 7 -2 7 C-1.34 4.69 -0.68 2.38 0 0 Z " fill="#000000" transform="translate(255,103)"/>
<path d="M0 0 C1.74627478 2.61941217 2.38722388 4.03824877 3 7 C3.66 7 4.32 7 5 7 C5 7.66 5 8.32 5 9 C10.26169639 11.13312016 14.96811258 11.33953325 20.5546875 11.4140625 C21.45623566 11.43342865 22.35778381 11.4527948 23.28665161 11.4727478 C26.14933996 11.53224296 29.01206918 11.57880817 31.875 11.625 C33.82293363 11.66320747 35.77085086 11.7022608 37.71875 11.7421875 C42.47907848 11.83950256 47.2392449 11.91930924 52 12 C52 20.58 52 29.16 52 38 C49.10992187 38.04898438 46.21984375 38.09796875 43.2421875 38.1484375 C40.4322406 38.20250183 37.62237649 38.2597879 34.8125 38.31738281 C32.86497202 38.35558233 30.91737565 38.39045075 28.96972656 38.421875 C26.16446554 38.46772196 23.35967161 38.52568366 20.5546875 38.5859375 C19.25590164 38.60326431 19.25590164 38.60326431 17.93087769 38.62094116 C13.24637958 38.73439776 9.40637364 39.21363231 5 41 C5 41.66 5 42.32 5 43 C4.34 43 3.68 43 3 43 C2.34 45.31 1.68 47.62 1 50 C0.67 50 0.34 50 0 50 C-0.34559158 47.09703073 -0.51874316 44.87462509 1.0078125 42.30078125 C3.19479231 39.59652179 4.66669298 38.11110234 8 37 C9.39655459 36.91410697 10.79685777 36.88227285 12.19604492 36.88647461 C13.03668991 36.88655014 13.8773349 36.88662567 14.74345398 36.88670349 C15.64666885 36.89186478 16.54988373 36.89702606 17.48046875 36.90234375 C18.40845779 36.9037587 19.33644684 36.90517365 20.29255676 36.90663147 C23.25757058 36.91223063 26.22250899 36.92478296 29.1875 36.9375 C31.19726453 36.94251511 33.20703025 36.947078 35.21679688 36.95117188 C40.1445837 36.96134905 45.0722074 36.98092467 50 37 C50 29.08 50 21.16 50 13 C47.00292969 13.01160156 44.00585938 13.02320312 40.91796875 13.03515625 C38.01879991 13.04295253 35.11963222 13.04902605 32.22045898 13.05493164 C30.20385211 13.05996382 28.1872489 13.06679014 26.1706543 13.07543945 C23.27391661 13.08755373 20.37722712 13.09323943 17.48046875 13.09765625 C16.57725388 13.10281754 15.674039 13.10797882 14.74345398 13.11329651 C13.4824865 13.11340981 13.4824865 13.11340981 12.19604492 13.11352539 C11.08684944 13.11685631 11.08684944 13.11685631 9.95524597 13.12025452 C6.25155005 12.89246417 4.95527304 11.95527304 2.3125 9.3125 C0.26913249 6.78582101 0.00394045 6.04255689 -0.3125 2.625 C-0.209375 1.75875 -0.10625 0.8925 0 0 Z " fill="#000000" transform="translate(0,103)"/>
<path d="M0 0 C5.88977548 5.02363202 5.88977548 5.02363202 6.44140625 9.21875 C6.53871227 13.62995635 6.49055787 16.9817696 4.125 20.8125 C0.37265892 24.17998559 -2.16230217 25.68563349 -7.25 26.0625 C-11.15888317 25.79292185 -12.75726968 25.0876005 -15.875 22.8125 C-16.6175 22.338125 -17.36 21.86375 -18.125 21.375 C-21.23661077 18.5967761 -20.86176419 16.01765509 -21.125 11.9375 C-21.05753071 7.91183263 -20.15923508 5.19946926 -17.875 1.8125 C-13.03263666 -2.58964849 -5.81271896 -2.40090566 0 0 Z M-13.875 0.8125 C-17.01866646 3.53701093 -18.54796701 5.17471878 -19.36328125 9.2578125 C-19.60149083 13.81782443 -19.41746429 16.08921428 -16.625 19.8125 C-15.7175 20.4725 -14.81 21.1325 -13.875 21.8125 C-13.25625 22.26625 -12.6375 22.72 -12 23.1875 C-8.61996055 24.18162925 -6.26631751 23.68956487 -2.875 22.8125 C0.67649777 20.64438747 4.00221255 17.92938731 5.125 13.8125 C4.90860476 8.83540941 3.47402004 5.49642204 0.125 1.8125 C-4.24644997 0.02306534 -9.44770422 -1.15518701 -13.875 0.8125 Z " fill="#000000" transform="translate(109.875,180.1875)"/>
<path d="M0 0 C3.11404715 2.83095196 4.78162903 5.63680948 5.3125 9.8671875 C5.43581052 13.95184847 5.12723457 17.33545503 3.0625 20.875 C-0.6397011 24.2924164 -3.24171697 25.74938644 -8.3125 26.125 C-14.06249249 25.72844879 -17.1610948 23.05602005 -20.9375 18.875 C-22.81718188 15.11563624 -22.59565796 10.95801699 -21.9375 6.875 C-17.2318336 -1.43437295 -8.77159429 -3.35933399 0 0 Z M-15.9375 1.875 C-19.09618513 5.63127421 -20.9375 8.9154799 -20.9375 13.875 C-18.55615588 18.63768824 -15.74148418 21.56539222 -10.9375 23.875 C-6.5634008 24.22733412 -3.65256007 23.34663537 0 20.9375 C2.94091609 17.99658391 3.27737881 16.18961481 3.4375 12.125 C3.38650056 8.60093893 3.15351568 6.1964176 1.0625 3.3125 C-4.15251852 -0.92470255 -9.90996639 -1.27575621 -15.9375 1.875 Z " fill="#000000" transform="translate(161.9375,180.125)"/>
<path d="M0 0 C0.33 0 0.66 0 1 0 C1.42755682 2.99289774 1.55953389 5.13738526 -0.125 7.734375 C-2.86227285 10.72826718 -4.24079203 11.91564356 -8.375 12.375 C-9.24125 12.25125 -10.1075 12.1275 -11 12 C-10.01 11.34 -9.02 10.68 -8 10 C-4.01036025 6.98741489 -1.39610402 4.88636408 0 0 Z " fill="#000000" transform="translate(255,244)"/>
<path d="M0 0 C0.99 1.485 0.99 1.485 2 3 C5.01258511 6.98963975 7.11363592 9.60389598 12 11 C12 11.33 12 11.66 12 12 C9.00710226 12.42755682 6.86261474 12.55953389 4.265625 10.875 C1.27173282 8.13772715 0.08435644 6.75920797 -0.375 2.625 C-0.25125 1.75875 -0.1275 0.8925 0 0 Z " fill="#000000" transform="translate(0,244)"/>
<path d="M0 0 C2.99289774 -0.42755682 5.13738526 -0.55953389 7.734375 1.125 C10.72826718 3.86227285 11.91564356 5.24079203 12.375 9.375 C12.25125 10.24125 12.1275 11.1075 12 12 C11.34 11.01 10.68 10.02 10 9 C6.98741489 5.01036025 4.88636408 2.39610402 0 1 C0 0.67 0 0.34 0 0 Z " fill="#000000" transform="translate(244,0)"/>
<path d="M0 0 C-0.99 0.66 -1.98 1.32 -3 2 C-6.98963975 5.01258511 -9.60389598 7.11363592 -11 12 C-11.33 12 -11.66 12 -12 12 C-12.42755682 9.00710226 -12.55953389 6.86261474 -10.875 4.265625 C-7.46783142 0.53903436 -5.22858916 -0.74694131 0 0 Z " fill="#000000" transform="translate(12,0)"/>
</svg>
